HIERARCHY
ROOT Hips
{
	OFFSET -0.001795 -0.223333 0.028219
	CHANNELS 6 Xposition Yposition Zposition Zrotation Yrotation Xrotation 
	JOINT LeftUpLeg
	{
		OFFSET 0.069520 -0.091406 -0.006815
		CHANNELS 3 Zrotation Yrotation Xrotation
		JOINT LeftLeg
		{
			OFFSET 0.034277 -0.375199 -0.004496
			CHANNELS 3 Zrotation Yrotation Xrotation
			JOINT LeftFoot
			{
				OFFSET -0.013596 -0.397961 -0.043693
				CHANNELS 3 Zrotation Yrotation Xrotation
				JOINT LeftToe
				{
					OFFSET 0.026358 -0.055791 0.119288
					CHANNELS 3 Zrotation Yrotation Xrotation
					End Site
					{
						OFFSET 0.000000 0.000000 0.000000
					}
				}
			}
		}
	}
	JOINT RightUpLeg
	{
		OFFSET -0.067670 -0.090522 -0.004320
		CHANNELS 3 Zrotation Yrotation Xrotation
		JOINT RightLeg
		{
			OFFSET -0.038290 -0.382569 -0.008850
			CHANNELS 3 Zrotation Yrotation Xrotation
			JOINT RightFoot
			{
				OFFSET 0.015774 -0.398415 -0.042312
				CHANNELS 3 Zrotation Yrotation Xrotation
				JOINT RightToe
				{
					OFFSET -0.025372 -0.048144 0.123348
					CHANNELS 3 Zrotation Yrotation Xrotation
					End Site
					{
						OFFSET 0.000000 0.000000 0.000000
					}
				}
			}
		}
	}
	JOINT Spine
	{
		OFFSET -0.002533 0.108963 -0.026696
		CHANNELS 3 Zrotation Yrotation Xrotation
		JOINT Spine1
		{
			OFFSET 0.005487 0.135180 0.001092
			CHANNELS 3 Zrotation Yrotation Xrotation
			JOINT Spine2
			{
				OFFSET 0.001457 0.052922 0.025425
				CHANNELS 3 Zrotation Yrotation Xrotation
				JOINT Neck
				{
					OFFSET -0.002778 0.213870 -0.042857
					CHANNELS 3 Zrotation Yrotation Xrotation
					JOINT Head
					{
						OFFSET 0.005152 0.064970 0.051349
						CHANNELS 3 Zrotation Yrotation Xrotation
						End Site
						{
							OFFSET 0.000000 0.000000 0.000000
						}
					}
				}
				JOINT LeftShoulder
				{
					OFFSET 0.078845 0.121749 -0.034090
					CHANNELS 3 Zrotation Yrotation Xrotation
					JOINT LeftArm
					{
						OFFSET 0.090977 0.030469 -0.008868
						CHANNELS 3 Zrotation Yrotation Xrotation
						JOINT LeftForeArm
						{
							OFFSET 0.259612 -0.012772 -0.027456
							CHANNELS 3 Zrotation Yrotation Xrotation
							JOINT LeftHand
							{
								OFFSET 0.249234 0.008986 -0.001171
								CHANNELS 3 Zrotation Yrotation Xrotation
								End Site
								{
									OFFSET 0.000000 0.000000 0.000000
								}
							}
						}
					}
				}
				JOINT RightShoulder
				{
					OFFSET -0.081759 0.118833 -0.038615
					CHANNELS 3 Zrotation Yrotation Xrotation
					JOINT RightArm
					{
						OFFSET -0.096012 0.032551 -0.009143
						CHANNELS 3 Zrotation Yrotation Xrotation
						JOINT RightForeArm
						{
							OFFSET -0.253742 -0.013329 -0.021401
							CHANNELS 3 Zrotation Yrotation Xrotation
							JOINT RightHand
							{
								OFFSET -0.255298 0.007772 -0.005559
								CHANNELS 3 Zrotation Yrotation Xrotation
								End Site
								{
									OFFSET 0.000000 0.000000 0.000000
								}
							}
						}
					}
				}
			}
		}
	}
}
MOTION
Frames: 6
Frame Time: 0.050000
0.000000 0.959272 0.000000 -2.921787 -5.468443 -0.683725 0.139676 0.157616 1.661913 2.631601 -0.235654 -1.371292 -2.502026 -1.155690 9.492721 0.000000 0.000000 0.000000 2.268232 -0.019006 -0.407964 -2.121197 0.394827 3.040838 3.296559 1.542968 10.169396 0.000000 0.000000 0.000000 3.115083 -0.200771 2.685656 -2.150406 1.064005 1.684477 0.483911 2.215985 -1.004490 4.381661 -2.787100 -4.976498 0.000000 0.000000 0.000000 -22.140269 -0.176560 -2.124663 -48.359449 -4.035055 -3.701408 -16.979527 -25.954554 4.859201 0.000000 0.000000 0.000000 22.633509 -3.840487 -4.739730 53.495919 0.350566 -4.455731 10.272407 24.026555 2.679216 0.000000 0.000000 0.000000 
0.000050 0.958147 0.001629 -3.191946 -5.899752 -0.156217 0.635893 0.142218 1.576855 2.192460 -0.163240 -1.891238 -2.250150 -0.874377 9.180828 0.000000 0.000000 0.000000 2.235979 0.040316 -0.950323 -1.775446 0.359048 3.180776 3.616638 2.279878 9.926962 0.000000 0.000000 0.000000 3.039746 -0.162766 2.069854 -1.977025 0.997118 2.655488 0.592868 2.546102 -1.809433 4.528055 -2.757786 -5.806198 0.000000 0.000000 0.000000 -22.778073 0.053023 -2.396094 -47.737521 -4.528000 -3.372678 -16.850337 -26.550397 4.923771 0.000000 0.000000 0.000000 22.041878 -3.912897 -4.670993 54.087104 -0.425358 -4.778381 11.261803 25.724635 3.093246 0.000000 0.000000 0.000000 
0.000088 0.957684 0.003111 -2.846359 -5.713237 -0.118969 0.264902 0.153462 1.641326 2.179967 -0.154687 -2.017399 -2.337303 -1.027145 9.144058 0.000000 0.000000 0.000000 2.219293 0.058636 -1.101704 -1.942711 0.398029 3.463887 2.840348 0.914804 9.557803 0.000000 0.000000 0.000000 3.121914 -0.185002 2.361375 -1.514931 0.737175 0.828092 -0.120441 3.031306 -0.756952 4.201339 -2.548225 -5.624305 0.000000 0.000000 0.000000 -22.436835 -0.401799 -2.255140 -47.856834 -4.046313 -3.612646 -16.640052 -26.328672 4.801285 0.000000 0.000000 0.000000 23.140017 -3.293043 -4.261908 53.095748 -0.577251 -4.885790 10.205928 26.219852 2.998566 0.000000 0.000000 0.000000 
-0.000030 0.957981 0.004705 -2.993518 -5.999569 -0.257622 0.619254 0.182115 2.003168 1.803548 -0.113457 -2.108005 -2.240923 -0.869883 9.173738 0.000000 0.000000 0.000000 2.079603 0.058093 -1.074118 -1.799219 0.385795 3.567774 3.505308 1.863217 10.232348 0.000000 0.000000 0.000000 2.823197 -0.175491 2.357395 -1.181952 0.583193 1.834049 0.253456 3.113651 -1.626765 3.985910 -2.379208 -5.650105 0.000000 0.000000 0.000000 -21.690007 0.635682 -2.747946 -48.624350 -4.243550 -3.526126 -16.646653 -26.708843 4.867642 0.000000 0.000000 0.000000 22.362236 -3.204225 -4.156964 53.294715 -0.170463 -4.636581 10.118206 26.479248 2.988912 0.000000 0.000000 0.000000 
-0.000199 0.958450 0.006422 -2.858968 -6.084328 -0.669186 0.301313 0.215615 2.285111 2.095843 -0.168699 -1.621497 -2.191088 -0.789056 9.173397 0.000000 0.000000 0.000000 1.891863 -0.000913 -0.503424 -1.951103 0.389654 3.321280 3.895600 2.377459 10.692331 0.000000 0.000000 0.000000 2.990001 -0.209733 2.874501 -1.439094 0.714045 1.923844 0.294609 3.558172 -1.803332 3.661234 -2.154468 -5.477621 0.000000 0.000000 0.000000 -21.212372 0.248087 -2.587667 -48.556524 -4.173239 -3.509750 -16.531228 -26.802899 4.825690 0.000000 0.000000 0.000000 22.151759 -3.330473 -4.091083 53.097897 -0.398579 -4.725253 10.390045 27.330317 3.182293 0.000000 0.000000 0.000000 
-0.000493 0.958563 0.008249 -2.879716 -5.885670 -0.837231 0.470339 0.238680 2.570110 1.889257 -0.146296 -1.624115 -2.306788 -0.979275 9.149800 0.000000 0.000000 0.000000 1.785060 -0.050691 -0.020955 -2.077508 0.392627 3.107244 4.334101 3.301930 10.683806 0.000000 0.000000 0.000000 2.952293 -0.231800 3.255045 -1.127430 0.552062 1.457631 0.139961 4.029168 -1.406933 3.524895 -1.999049 -5.814789 0.000000 0.000000 0.000000 -20.963125 0.553429 -2.868280 -48.289076 -3.987035 -3.559260 -15.723335 -26.899932 4.612065 0.000000 0.000000 0.000000 21.852166 -3.107315 -3.744545 53.049383 -0.424897 -4.803522 9.955697 27.631666 3.171891 0.000000 0.000000 0.000000 
